PathFileType	4	(x/y/z)	S06_PSF_T05
DataRate	CameraRate	NumFrames	NumMarkers	Units	OrigDataRate	OrigDataStartFrame	OrigNumFrames
240	240	10	51	mm	240	298	397
Frame#	Time	Sternum			R.Acromium			L.Acromium			Top.Head			R.ASIS			L.ASIS			R.PSIS			L.PSIS			R.Great.Tro			L.Great.Tro			R.Iliac.Crest			L.Iliac.Crest			V.Sacral			R.Thigh.Upper.Post			R.Thigh.Lower.Ant			R.Thigh.Lower.Post			R.Thigh.Upper.Ant			R.Knee.Lat			R.Knee.Med			R.Shank.Upper.Post			R.Shank.Lower.Ant			R.Shank.Lower.Post			R.Shank.Upper.Ant			R.Ankle.Lat			R.Ankle.Med			R.Heel.Upper			R.Heel.Med			R.Heel.Lat			R.Toe.Lat			R.Toe.Med			R.Toe.Tip			L.Thigh.Upper.Post			L.Thigh.Lower.Ant			L.Thigh.Lower.Post			L.Thigh.Upper.Ant			L.Knee.Lat			L.Knee.Med			L.Shank.Upper.Post			L.Shank.Lower.Ant			L.Shank.Lower.Post			L.Shank.Upper.Ant			L.Ankle.Lat			L.Ankle.Med			L.Heel.Upper			L.Heel.Med			L.Heel.Lat			L.Toe.Lat			L.Toe.Med			L.Toe.Tip			Cervical.Spine			Back			
		X1	Y1	Z1	X2	Y2	Z2	X3	Y3	Z3	X4	Y4	Z4	X5	Y5	Z5	X6	Y6	Z6	X7	Y7	Z7	X8	Y8	Z8	X9	Y9	Z9	X10	Y10	Z10	X11	Y11	Z11	X12	Y12	Z12	X13	Y13	Z13	X14	Y14	Z14	X15	Y15	Z15	X16	Y16	Z16	X17	Y17	Z17	X18	Y18	Z18	X19	Y19	Z19	X20	Y20	Z20	X21	Y21	Z21	X22	Y22	Z22	X23	Y23	Z23	X24	Y24	Z24	X25	Y25	Z25	X26	Y26	Z26	X27	Y27	Z27	X28	Y28	Z28	X29	Y29	Z29	X30	Y30	Z30	X31	Y31	Z31	X32	Y32	Z32	X33	Y33	Z33	X34	Y34	Z34	X35	Y35	Z35	X36	Y36	Z36	X37	Y37	Z37	X38	Y38	Z38	X39	Y39	Z39	X40	Y40	Z40	X41	Y41	Z41	X42	Y42	Z42	X43	Y43	Z43	X44	Y44	Z44	X45	Y45	Z45	X46	Y46	Z46	X47	Y47	Z47	X48	Y48	Z48	X49	Y49	Z49	X50	Y50	Z50	X51	Y51	Z51	

298	1.2375	153.93	1285.6	335.1	29.051	1492	504.18	10.882	1487.3	153.01	54.03	1805.6	320.5	106.44	1046.6	464.93	114.7	1052	211.36	-90.841	1064.2	372.85	-91.921	1068.1	292.41	48.092	968.6	513.73	20.967	972.19	159.45	23.116	1123.7	495.05	40.295	1118.6	175.92	-103.29	1030.9	335.58	48.768	717.65	520.21	111.18	638.1	501.5	42.263	628.9	507.76	121.76	728.82	510.05	48.848	522.08	502.22	82.416	513.76	376.21	-144.22	406.41	489.17	-154.14	318.03	468.1	-204.82	361.13	470.22	-94.302	363.36	487.04	-281.99	259.02	445.19	-259.38	249.47	359	-336.36	292.83	391.02	-357.86	273.55	356.83	-365.5	271.81	421.71	-305.08	105.32	464.11	-273.83	91.504	348.07	-236.06	40.975	395.74	133.22	723.7	180.11	194.46	657.73	243.67	130.64	635.08	202.71	190.69	749.47	217.01	134.74	542.6	220.77	159.27	556.37	339.54	107.44	312.61	236.5	175.69	255.54	242.13	106.78	241.14	255.42	172.49	325.64	228.67	163.66	106.48	259.22	170.15	128.42	346.4	87.5	71.851	302.93	91.302	43.904	336.04	93.864	45.129	274.16	274.54	44.498	241.49	289.82	51.457	360.13	363.26	66.216	307.7	-35.963	1541.2	330.85	-88.613	1267.3	335.96
299	1.2417	159.18	1286	335.09	34.1	1492.5	503.93	16.529	1487.8	152.71	59.567	1806.1	320.1	111.28	1046.9	464.62	120.04	1052.5	211.14	-85.749	1064.7	372.07	-86.69	1068.7	291.63	53.183	968.83	513.31	26.262	972.93	158.89	27.917	1123.9	494.65	45.854	1119.2	175.52	-98.233	1031.5	334.67	57.624	718.02	520.41	121.06	639.18	501.71	52.146	629.18	508.04	130.43	730.03	509.93	60.222	522.71	502.66	93.519	514.49	376.42	-133.06	408.21	489.88	-143.52	319.92	468.7	-193.97	363.31	471.05	-83.356	364.89	487.56	-271.85	261.92	445.92	-249.26	251.93	359.78	-326.09	295.82	391.48	-347.71	276.39	357.45	-355.33	275.14	422.35	-295.57	108.61	465.81	-264.31	93.736	350.06	-226.88	42.3	398.14	136.96	723.86	179.52	197.95	657.59	243.02	133.91	635.29	202.19	194.67	749.35	216.31	137.46	542.71	220.35	162.22	556.45	339.1	108.83	312.85	236.41	176.76	255.4	241.95	107.8	241.4	255.41	173.94	325.48	228.39	163.95	106.49	259.28	170.59	128.45	346.39	87.573	71.929	302.95	91.363	43.975	336.06	93.921	45.224	274.16	274.62	44.39	241.47	289.93	51.06	360.25	363.46	65.554	307.77	-30.594	1541.7	330.49	-83.346	1267.9	335.41
300	1.2458	164.42	1286.4	335.12	39.114	1492.9	503.7	22.176	1488.3	152.42	65.098	1806.7	319.72	116.09	1047.1	464.33	125.36	1052.9	210.94	-80.702	1065.1	371.28	-81.487	1069.3	290.84	58.205	969.06	512.9	31.533	973.66	158.34	32.683	1124	494.27	51.404	1119.8	175.15	-93.202	1032	333.77	66.442	718.47	520.57	130.91	640.36	501.88	61.987	629.56	508.26	139.03	731.32	509.74	71.562	523.45	503.03	104.5	515.38	376.55	-121.87	409.96	490.55	-132.79	321.75	469.27	-183.05	365.37	471.85	-72.347	366.42	488.04	-261.58	264.61	446.62	-238.98	254.21	360.54	-315.79	298.44	391.9	-337.48	278.79	358.04	-345.08	278.06	422.96	-285.54	111.73	467.59	-254.27	95.812	352.11	-217.04	43.752	400.61	140.66	724.02	178.96	201.41	657.45	242.39	137.14	635.5	201.68	198.6	749.23	215.65	140.13	542.82	219.95	165.11	556.52	338.66	110.18	313.08	236.32	177.79	255.26	241.76	108.79	241.67	255.4	175.34	325.33	228.11	164.23	106.51	259.34	171.02	128.49	346.37	87.642	72.005	302.98	91.419	44.046	336.07	93.974	45.319	274.16	274.7	44.292	241.44	290.04	50.699	360.36	363.63	64.941	307.84	-25.23	1542.3	330.14	-78.093	1268.4	334.84
301	1.25	169.64	1286.7	335.17	44.094	1493.3	503.49	27.822	1488.7	152.13	70.624	1807.2	319.36	120.86	1047.3	464.07	130.66	1053.4	210.77	-75.695	1065.5	370.49	-76.313	1069.9	290.04	63.163	969.29	512.49	36.78	974.36	157.8	37.418	1124.2	493.9	56.943	1120.4	174.8	-88.192	1032.6	332.86	75.217	719.02	520.7	140.7	641.64	501.99	71.781	630.06	508.43	147.57	732.7	509.51	82.859	524.3	503.35	115.36	516.4	376.6	-110.66	411.66	491.16	-121.96	323.51	469.81	-172.06	367.31	472.62	-61.281	367.94	488.47	-251.15	267.08	447.28	-228.55	256.3	361.29	-305.46	300.69	392.28	-327.16	280.75	358.61	-334.72	280.57	423.54	-275.03	114.66	469.41	-243.74	97.715	354.19	-206.57	45.297	403.13	144.34	724.19	178.43	204.83	657.32	241.78	140.34	635.72	201.18	202.48	749.1	215.04	142.74	542.92	219.56	167.97	556.57	338.24	111.5	313.31	236.24	178.8	255.13	241.58	109.75	241.94	255.39	176.71	325.18	227.84	164.49	106.54	259.4	171.43	128.53	346.36	87.708	72.079	303.01	91.47	44.117	336.08	94.024	45.414	274.16	274.77	44.2	241.41	290.14	50.371	360.46	363.79	64.376	307.89	-19.872	1542.8	329.79	-72.852	1268.9	334.25
302	1.2542	174.85	1287	335.25	49.043	1493.7	503.29	33.468	1489.2	151.85	76.143	1807.7	319.04	125.62	1047.5	463.83	135.94	1053.8	210.62	-70.724	1066	369.68	-71.164	1070.6	289.25	68.065	969.54	512.1	42.002	975.04	157.27	42.127	1124.4	493.53	62.467	1120.9	174.46	-83.203	1033.1	331.95	83.947	719.67	520.78	150.44	643.02	502.06	81.527	630.66	508.55	156.05	734.16	509.22	94.106	525.26	503.59	126.12	517.56	376.58	-99.441	413.29	491.72	-111.02	325.19	470.31	-161.01	369.12	473.34	-50.163	369.45	488.86	-240.58	269.31	447.92	-217.97	258.18	362.04	-295.09	302.57	392.65	-316.77	282.3	359.18	-324.27	282.65	424.12	-264.04	117.38	471.27	-232.74	99.433	356.29	-195.5	46.903	405.66	147.99	724.37	177.93	208.23	657.18	241.19	143.51	635.94	200.7	206.32	748.97	214.47	145.32	543.03	219.19	170.78	556.61	337.83	112.79	313.54	236.14	179.78	255	241.4	110.69	242.21	255.37	178.05	325.05	227.57	164.73	106.57	259.45	171.83	128.59	346.34	87.771	72.152	303.03	91.517	44.189	336.09	94.072	45.509	274.16	274.83	44.115	241.38	290.24	50.075	360.54	363.93	63.855	307.93	-14.52	1543.4	329.45	-67.626	1269.5	333.66
303	1.2583	180.04	1287.3	335.35	53.966	1494.1	503.11	39.113	1489.6	151.58	81.655	1808.2	318.74	130.35	1047.7	463.61	141.19	1054.2	210.49	-65.786	1066.4	368.88	-66.041	1071.2	288.46	72.917	969.81	511.7	47.2	975.71	156.75	46.813	1124.6	493.16	67.976	1121.5	174.14	-78.231	1033.6	331.05	92.626	720.4	520.82	160.11	644.5	502.07	91.221	631.37	508.61	164.46	735.71	508.9	105.3	526.32	503.78	136.77	518.84	376.5	-88.212	414.84	492.23	-99.997	326.78	470.8	-149.91	370.79	474.02	-38.996	370.93	489.21	-229.85	271.29	448.54	-207.23	259.84	362.78	-284.67	304.08	393.02	-306.28	283.43	359.76	-313.71	284.32	424.71	-252.61	119.86	473.15	-221.3	100.95	358.38	-183.86	48.535	408.18	151.63	724.55	177.46	211.6	657.05	240.62	146.66	636.17	200.24	210.13	748.83	213.94	147.85	543.13	218.83	173.56	556.64	337.43	114.07	313.78	236.05	180.75	254.89	241.22	111.62	242.48	255.35	179.37	324.92	227.32	164.96	106.6	259.49	172.21	128.66	346.31	87.832	72.225	303.06	91.56	44.262	336.1	94.118	45.604	274.16	274.88	44.035	241.34	290.33	49.807	360.61	364.06	63.373	307.96	-9.1727	1543.9	329.11	-62.414	1270	333.05
304	1.2625	185.22	1287.6	335.47	58.864	1494.5	502.94	44.756	1490	151.32	87.159	1808.7	318.46	135.06	1047.9	463.4	146.43	1054.7	210.37	-60.875	1066.9	368.08	-60.94	1071.7	287.68	77.726	970.09	511.31	52.375	976.36	156.22	51.482	1124.8	492.8	73.467	1122	173.84	-73.274	1034.2	330.16	101.25	721.22	520.83	169.72	646.08	502.03	100.86	632.18	508.63	172.8	737.33	508.54	116.42	527.49	503.91	147.33	520.24	376.35	-76.98	416.31	492.68	-88.876	328.26	471.26	-138.76	372.31	474.66	-27.786	372.38	489.52	-218.97	273.02	449.16	-196.34	261.28	363.52	-274.19	305.22	393.39	-295.7	284.15	360.35	-303.03	285.58	425.31	-240.76	122.09	475.03	-209.46	102.27	360.47	-171.68	50.161	410.67	155.25	724.74	177.02	214.94	656.91	240.07	149.78	636.41	199.8	213.9	748.69	213.46	150.35	543.24	218.49	176.32	556.65	337.04	115.33	314.01	235.95	181.7	254.78	241.06	112.53	242.75	255.31	180.68	324.8	227.07	165.18	106.64	259.53	172.59	128.73	346.29	87.891	72.298	303.09	91.6	44.338	336.11	94.163	45.699	274.16	274.94	43.96	241.3	290.42	49.565	360.66	364.18	62.929	307.98	-3.8311	1544.5	328.78	-57.218	1270.5	332.44
305	1.2667	190.39	1287.9	335.6	63.741	1494.8	502.79	50.396	1490.5	151.07	92.656	1809.3	318.21	139.76	1048.2	463.21	151.64	1055.1	210.26	-55.987	1067.3	367.29	-55.861	1072.3	286.9	82.499	970.4	510.92	57.527	977.01	155.7	56.136	1125	492.44	78.942	1122.5	173.55	-68.332	1034.7	329.29	109.82	722.12	520.79	179.25	647.75	501.94	110.44	633.09	508.6	181.07	739.03	508.15	127.48	528.75	503.97	157.8	521.75	376.15	-65.747	417.69	493.07	-77.666	329.63	471.71	-127.55	373.66	475.26	-16.533	373.79	489.81	-207.94	274.47	449.78	-185.31	262.48	364.26	-263.63	306	393.79	-285.02	284.48	360.98	-292.24	286.43	425.94	-228.52	124.04	476.89	-197.24	103.37	362.51	-159	51.751	413.09	158.85	724.94	176.6	218.26	656.77	239.55	152.9	636.65	199.37	217.64	748.55	213.02	152.83	543.35	218.17	179.04	556.65	336.67	116.58	314.25	235.84	182.65	254.68	240.9	113.44	243.02	255.26	181.97	324.69	226.84	165.4	106.69	259.56	172.95	128.82	346.26	87.948	72.372	303.12	91.637	44.417	336.11	94.207	45.795	274.16	274.98	43.889	241.26	290.51	49.347	360.71	364.29	62.518	307.99	1.5048	1545.1	328.46	-52.037	1271.1	331.82
306	1.2708	195.54	1288.2	335.74	68.601	1495.2	502.64	56.033	1490.9	150.82	98.145	1809.8	317.99	144.45	1048.4	463.03	156.83	1055.5	210.15	-51.118	1067.8	366.51	-50.801	1072.9	286.15	87.244	970.73	510.54	62.654	977.64	155.18	60.78	1125.2	492.08	84.399	1123	173.28	-63.402	1035.2	328.44	118.33	723.1	520.71	188.69	649.5	501.79	119.96	634.09	508.52	189.26	740.8	507.73	138.47	530.1	503.98	168.19	523.35	375.9	-54.516	418.97	493.42	-66.369	330.89	472.14	-116.3	374.84	475.82	-5.2431	375.14	490.06	-196.75	275.64	450.4	-174.14	263.44	365	-253	306.42	394.21	-274.24	284.43	361.65	-281.32	286.88	426.61	-215.89	125.71	478.72	-184.66	104.27	364.51	-145.86	53.28	415.41	162.45	725.14	176.22	221.55	656.63	239.06	156	636.89	198.97	221.36	748.4	212.62	155.28	543.45	217.87	181.74	556.63	336.32	117.83	314.48	235.72	183.58	254.59	240.74	114.34	243.3	255.2	183.25	324.58	226.62	165.6	106.74	259.59	173.31	128.9	346.23	88.005	72.447	303.14	91.672	44.498	336.12	94.25	45.892	274.16	275.03	43.822	241.22	290.59	49.148	360.75	364.39	62.136	308	6.8348	1545.6	328.15	-46.871	1271.6	331.2
307	1.275	200.67	1288.4	335.89	73.448	1495.6	502.5	61.666	1491.3	150.59	103.63	1810.3	317.79	149.12	1048.7	462.85	162	1055.9	210.04	-46.264	1068.3	365.75	-45.758	1073.5	285.4	91.969	971.09	510.16	67.755	978.27	154.65	65.416	1125.4	491.72	89.839	1123.6	173.01	-58.484	1035.8	327.61	126.78	724.15	520.59	198.04	651.35	501.58	129.42	635.18	508.39	197.36	742.63	507.28	149.37	531.54	503.93	178.5	525.05	375.61	-43.29	420.15	493.72	-54.99	332.01	472.56	-105.01	375.85	476.36	6.0826	376.44	490.3	-185.4	276.53	451.04	-162.83	264.17	365.74	-242.28	306.49	394.68	-263.35	284	362.37	-270.28	286.93	427.32	-202.91	127.08	480.52	-171.75	104.95	366.45	-132.28	54.725	417.63	166.03	725.34	175.87	224.82	656.49	238.6	159.08	637.14	198.58	225.05	748.25	212.26	157.71	543.56	217.58	184.4	556.61	335.99	119.06	314.72	235.59	184.52	254.51	240.6	115.24	243.58	255.13	184.53	324.49	226.42	165.81	106.8	259.62	173.66	129	346.19	88.062	72.523	303.17	91.705	44.582	336.13	94.293	45.991	274.16	275.07	43.758	241.17	290.68	48.966	360.78	364.49	61.78	308	12.158	1546.2	327.84	-41.722	1272.1	330.58
